<!-- icon666.com - MILLIONS vector ICONS FREE --><svg viewBox="0 0 464 464" xmlns="http://www.w3.org/2000/svg"><path d="m456 224h-40v-40c0-4.417969-3.582031-8-8-8s-8 3.582031-8 8v40h-40c-4.417969 0-8 3.582031-8 8s3.582031 8 8 8h40v40c0 4.417969 3.582031 8 8 8s8-3.582031 8-8v-40h40c4.417969 0 8-3.582031 8-8s-3.582031-8-8-8zm0 0" fill="#454b6e"></path><path d="m464 440c0 13.253906-10.746094 24-24 24s-24-10.746094-24-24 10.746094-24 24-24 24 10.746094 24 24zm0 0" fill="#454b6e"></path><path d="m72 48c0 13.253906-10.746094 24-24 24s-24-10.746094-24-24 10.746094-24 24-24 24 10.746094 24 24zm0 0" fill="#454b6e"></path><path d="m56 424c0 8.835938-7.164062 16-16 16s-16-7.164062-16-16 7.164062-16 16-16 16 7.164062 16 16zm0 0" fill="#454b6e"></path><path d="m464 32c0 17.671875-14.328125 32-32 32s-32-14.328125-32-32 14.328125-32 32-32 32 14.328125 32 32zm0 0" fill="#454b6e"></path><path d="m396.023438 300.789062c-.054688-.023437-.109376-.011718-.167969-.03125.019531-.050781.042969-.09375.058593-.140624-7.09375-4.175782-11.914062-11.808594-11.914062-20.617188v-24h-24c-13.234375 0-24-10.765625-24-24s10.765625-24 24-24h24v-24c0-8.785156 4.800781-16.390625 11.859375-20.574219.074219-.027343.152344-.011719.226563-.042969 4.085937-1.679687 6.035156-6.355468 4.355468-10.441406-32.210937-78.328125-107.75-128.941406-192.441406-128.941406-114.691406 0-208 93.308594-208 208s93.308594 208 208 208c84.609375 0 160.117188-50.542969 192.367188-128.765625 1.6875-4.085937-.261719-8.761719-4.34375-10.445313zm-271.828126-205.113281c-26.46875 16.308594-47.492187 39.738281-60.800781 67.757813-1.371093 2.882812-4.238281 4.566406-7.230469 4.566406-1.152343 0-2.320312-.246094-3.429687-.773438-3.988281-1.894531-5.6875-6.667968-3.792969-10.660156 14.636719-30.8125 37.757813-56.578125 66.863282-74.515625 3.75-2.316406 8.691406-1.144531 11.007812 2.617188s1.144531 8.6875-2.617188 11.007812zm91.804688 240.324219v24c0 4.417969-3.582031 8-8 8s-8-3.582031-8-8v-24h-32c-4.417969 0-8-3.582031-8-8s3.582031-8 8-8h48c22.054688 0 40-17.945312 40-40s-17.945312-40-40-40h-16c-30.878906 0-56-25.121094-56-56s25.121094-56 56-56v-24c0-4.417969 3.582031-8 8-8s8 3.582031 8 8v24h24c4.417969 0 8 3.582031 8 8s-3.582031 8-8 8h-40c-22.054688 0-40 17.945312-40 40s17.945312 40 40 40h16c30.878906 0 56 25.121094 56 56s-25.121094 56-56 56zm151.058594-28.566406c-19.976563 42.054687-56.570313 75.058594-100.390625 90.550781-.882813.3125-1.785157.460937-2.667969.460937-3.296875 0-6.382812-2.054687-7.542969-5.335937-1.472656-4.167969.710938-8.738281 4.875-10.210937 39.839844-14.082032 73.109375-44.09375 91.273438-82.332032 1.898437-3.996094 6.664062-5.703125 10.660156-3.792968 3.988281 1.894531 5.6875 6.667968 3.792969 10.660156zm0 0" fill="#fcb64d" style="fill: rgb(245, 188, 79);"></path><path d="m208 440c-114.691406 0-208-93.308594-208-208s93.308594-208 208-208c84.691406 0 160.230469 50.613281 192.441406 128.941406 1.679688 4.085938-.269531 8.761719-4.355468 10.441406-4.097657 1.683594-8.761719-.273437-10.441407-4.355468-29.738281-72.304688-99.464843-119.027344-177.644531-119.027344-105.867188 0-192 86.132812-192 192s86.132812 192 192 192c78.101562 0 147.804688-46.65625 177.578125-118.867188 1.683594-4.082031 6.347656-6.042968 10.445313-4.34375 4.082031 1.683594 6.03125 6.359376 4.34375 10.445313-32.25 78.222656-107.757813 128.765625-192.367188 128.765625zm0 0" fill="#454b6e"></path><path d="m456 440c0 8.835938-7.164062 16-16 16s-16-7.164062-16-16 7.164062-16 16-16 16 7.164062 16 16zm0 0" fill="#ef5451"></path><path d="m440 464c-13.234375 0-24-10.765625-24-24s10.765625-24 24-24 24 10.765625 24 24-10.765625 24-24 24zm0-32c-4.410156 0-8 3.589844-8 8s3.589844 8 8 8 8-3.589844 8-8-3.589844-8-8-8zm0 0" fill="#454b6e"></path><path d="m64 48c0 8.835938-7.164062 16-16 16s-16-7.164062-16-16 7.164062-16 16-16 16 7.164062 16 16zm0 0" fill="#ef5451"></path><path d="m48 72c-13.234375 0-24-10.765625-24-24s10.765625-24 24-24 24 10.765625 24 24-10.765625 24-24 24zm0-32c-4.410156 0-8 3.589844-8 8s3.589844 8 8 8 8-3.589844 8-8-3.589844-8-8-8zm0 0" fill="#454b6e"></path><path d="m456 32c0 13.253906-10.746094 24-24 24s-24-10.746094-24-24 10.746094-24 24-24 24 10.746094 24 24zm0 0" fill="#ef5451"></path><g fill="#454b6e"><path d="m432 64c-17.644531 0-32-14.355469-32-32s14.355469-32 32-32 32 14.355469 32 32-14.355469 32-32 32zm0-48c-8.824219 0-16 7.175781-16 16s7.175781 16 16 16 16-7.175781 16-16-7.175781-16-16-16zm0 0" fill="#454b6e"></path><path d="m216 336h-48c-4.417969 0-8-3.582031-8-8s3.582031-8 8-8h48c22.054688 0 40-17.945312 40-40s-17.945312-40-40-40h-16c-30.878906 0-56-25.121094-56-56s25.121094-56 56-56h40c4.417969 0 8 3.582031 8 8s-3.582031 8-8 8h-40c-22.054688 0-40 17.945312-40 40s17.945312 40 40 40h16c30.878906 0 56 25.121094 56 56s-25.121094 56-56 56zm0 0" fill="#454b6e"></path><path d="m208 368c-4.417969 0-8-3.582031-8-8v-32c0-4.417969 3.582031-8 8-8s8 3.582031 8 8v32c0 4.417969-3.582031 8-8 8zm0 0" fill="#454b6e"></path><path d="m208 144c-4.417969 0-8-3.582031-8-8v-32c0-4.417969 3.582031-8 8-8s8 3.582031 8 8v32c0 4.417969-3.582031 8-8 8zm0 0" fill="#454b6e"></path><path d="m56.164062 168c-1.152343 0-2.320312-.246094-3.429687-.773438-3.988281-1.894531-5.6875-6.667968-3.792969-10.660156 14.636719-30.8125 37.757813-56.578125 66.863282-74.515625 3.75-2.316406 8.691406-1.144531 11.007812 2.617188s1.144531 8.6875-2.617188 11.007812c-26.46875 16.308594-47.492187 39.738281-60.800781 67.757813-1.371093 2.882812-4.238281 4.566406-7.230469 4.566406zm0 0" fill="#454b6e"></path><path d="m264 398.445312c-3.296875 0-6.382812-2.054687-7.542969-5.335937-1.472656-4.167969.710938-8.738281 4.875-10.210937 39.839844-14.082032 73.109375-44.09375 91.273438-82.332032 1.898437-3.996094 6.664062-5.703125 10.660156-3.792968 3.988281 1.894531 5.6875 6.667968 3.792969 10.660156-19.976563 42.054687-56.570313 75.058594-100.390625 90.550781-.882813.3125-1.785157.460937-2.667969.460937zm0 0" fill="#454b6e"></path></g></svg>