<!-- icon666.com - MILLIONS vector ICONS FREE --><svg id="Layer_1" viewBox="0 0 512 512" xmlns="http://www.w3.org/2000/svg" data-name="Layer 1"><g fill-rule="evenodd"><path d="m36.455 494.594h296.845a32.5 32.5 0 0 0 32.469-32.434v-352.119a32.515 32.515 0 0 0 -32.469-32.5h-75.628v-19.579a11.982 11.982 0 0 0 -12-12h-24.272l-.9-2.753a37.487 37.487 0 0 0 -71.253 0l-.9 2.75h-24.273a11.977 11.977 0 0 0 -12 12v19.577h-75.619a32.515 32.515 0 0 0 -32.469 32.5v352.124a32.5 32.5 0 0 0 32.469 32.434z" fill="#ffc107" style="fill: rgb(245, 188, 79);"></path><path d="m495.989 77.607h-82.425a11.982 11.982 0 0 0 -12 12v321.617a11.956 11.956 0 0 0 1.567 5.948l40.713 71.367a11.906 11.906 0 0 0 10.334 6.055h.093a11.981 11.981 0 0 0 10.356-5.948l41.706-71.367a11.988 11.988 0 0 0 1.646-6.055v-321.615a11.982 11.982 0 0 0 -11.99-12.002z" fill="#ffc107" style="fill: rgb(245, 188, 79);"></path><path d="m200.828 295.78a15.983 15.983 0 0 1 16-16h58.365a16 16 0 0 1 0 32h-58.37a15.984 15.984 0 0 1 -16-16zm-118.973 3.143a16 16 0 0 1 25.432-19.431l10.166 13.359 35.069-29.361a15.989 15.989 0 1 1 20.545 24.5l-47.9 40.148a16.344 16.344 0 0 1 -10.273 3.715 14.9 14.9 0 0 1 -1.772-.143 15.89 15.89 0 0 1 -10.937-6.144zm118.973 94.871a15.984 15.984 0 0 1 16-16h58.365a16 16 0 0 1 0 32h-58.37a15.983 15.983 0 0 1 -16-16zm-118.973 3.143a16 16 0 1 1 25.432-19.431l10.166 13.359 35.069-29.365a15.989 15.989 0 1 1 20.545 24.5l-47.9 40.077a16.009 16.009 0 0 1 -10.267 3.793 14.9 14.9 0 0 1 -1.772-.143 15.89 15.89 0 0 1 -10.937-6.144zm118.973-199.17a15.983 15.983 0 0 1 16-16h58.365a16 16 0 0 1 0 32h-58.37a15.983 15.983 0 0 1 -16-16zm-118.973 3.143a16 16 0 1 1 25.432-19.431l10.166 13.359 35.069-29.361a15.988 15.988 0 1 1 20.545 24.5l-47.9 40.077a16.009 16.009 0 0 1 -10.273 3.786 14.693 14.693 0 0 1 -1.772-.143 15.885 15.885 0 0 1 -10.937-6.143zm-49.871-90.869v352.119a4.493 4.493 0 0 0 4.472 4.429h296.844a4.487 4.487 0 0 0 4.465-4.429v-352.119a4.549 4.549 0 0 0 -4.465-4.5h-71.628v18.145a16.029 16.029 0 0 1 -16 16h-121.6a16.024 16.024 0 0 1 -16-16v-18.146h-71.616a4.555 4.555 0 0 0 -4.472 4.5zm108.093-36.077h19.5a16.051 16.051 0 0 0 15.873-17.931c-.035-.428-.071-.786-.071-1.143a9.491 9.491 0 1 1 18.981 0 8.781 8.781 0 0 1 -.079 1.143 16.074 16.074 0 0 0 15.888 17.931h19.5v33.719h-89.6v-33.719zm-103.621 424.63h296.844a36.5 36.5 0 0 0 36.469-36.434v-352.119a36.517 36.517 0 0 0 -36.469-36.5h-71.628v-15.579a15.983 15.983 0 0 0 -16-16h-21.372a41.488 41.488 0 0 0 -78.854 0h-21.371a15.979 15.979 0 0 0 -16 16v15.574h-71.619a36.518 36.518 0 0 0 -36.47 36.5v352.124a36.5 36.5 0 0 0 36.47 36.434zm417.993-48.007-15.349-26.861h31.055l-15.709 26.861zm25.539-344.976v18.717h-50.421v-18.717zm-50.421 286.111v-235.389h50.421v235.389zm66.423-318.115h-82.426a15.983 15.983 0 0 0 -16 16v321.617a16.016 16.016 0 0 0 2.093 7.93l40.713 71.367a15.862 15.862 0 0 0 13.809 8.073h.093a15.965 15.965 0 0 0 13.809-7.93l41.711-71.364a15.782 15.782 0 0 0 2.193-8.073v-321.618a15.983 15.983 0 0 0 -15.995-16.002z" fill="#000000"></path></g></svg>