<!-- icon666.com - MILLIONS vector ICONS FREE --><svg version="1.1" id="Capa_1" xmlns="http://www.w3.org/2000/svg" xmlns:xlink="http://www.w3.org/1999/xlink" x="0px" y="0px" viewBox="0 0 512 512" style="enable-background:new 0 0 512 512;" xml:space="preserve"><path style="" d="M256,8L256,8C119.2,8,8,119.2,8,256l0,0c0,136.8,111.2,248,248,248l0,0c136.8,0,248-111.2,248-248 l0,0C504,119.2,392.8,8,256,8z" fill="#FFFFFF"></path><path style="fill: rgb(245, 188, 79);" d="M256,448.8c-106.4,0-192.8-86.4-192.8-192.8S149.6,63.2,256,63.2S448.8,149.6,448.8,256 S362.4,448.8,256,448.8z" fill="#FFBF5D"></path><g><path style="" d="M256,512c140.8,0,256-115.2,256-256S396.8,0,256,0S0,115.2,0,256S115.2,512,256,512z M51.2,332 l-20,8c-8.8-24-14.4-49.6-15.2-76h21.6v-16H16c0.8-26.4,6.4-52.8,15.2-76l20,8l6.4-14.4l-20-8c11.2-24,25.6-45.6,43.2-64.8L96,108 l11.2-11.2L92,81.6c19.2-17.6,40.8-32.8,64.8-43.2l8,20l14.4-6.4l-8-20c24-8.8,49.6-14.4,76-15.2v21.6h16V16 c26.4,0.8,52.8,6.4,76,15.2l-8,20l14.4,6.4l8-20c24,11.2,45.6,25.6,64.8,43.2L404.8,96l11.2,11.2L431.2,92 c17.6,19.2,32.8,40.8,43.2,64.8l-20,8l6.4,14.4l20-8c8.8,24,14.4,49.6,15.2,76h-21.6v16H496c-0.8,26.4-6.4,52.8-15.2,76l-20-8 l-6.4,14.4l20,8c-11.2,24-25.6,45.6-43.2,64.8L416,404.8L404.8,416l15.2,15.2c-19.2,17.6-40.8,32.8-64.8,43.2l-8-20l-14.4,6.4l8,20 c-24,8.8-49.6,14.4-76,15.2v-21.6h-16V496c-26.4-0.8-52.8-6.4-76-15.2l8-20l-14.4-6.4l-8,20c-24-11.2-45.6-25.6-64.8-43.2 l15.2-15.2L96,404.8L80.8,420c-17.6-19.2-32.8-40.8-43.2-64.8l20-8L51.2,332z" fill="#193651"></path><rect x="102.804" y="198.343" transform="matrix(-0.3218 0.9468 -0.9468 -0.3218 341.8279 167.8354)" style="" width="16" height="16" fill="#193651"></rect><rect x="393.224" y="297.665" transform="matrix(-0.3218 0.9468 -0.9468 -0.3218 819.7436 24.1471)" style="" width="16" height="16" fill="#193651"></rect><rect x="93.758" y="244.585" transform="matrix(-0.001 1 -1 -0.001 354.4432 151.0804)" style="" width="15.998" height="15.998" fill="#193651"></rect><rect x="401.261" y="249.162" transform="matrix(-0.0103 0.9999 -0.9999 -0.0103 670.6036 -149.4417)" style="" width="15.999" height="15.999" fill="#193651"></rect><rect x="102.374" y="294.28" transform="matrix(-0.953 0.303 -0.303 -0.953 307.1503 556.9071)" style="" width="16" height="16" fill="#193651"></rect><rect x="394.374" y="201.48" transform="matrix(-0.9529 0.3032 -0.3032 -0.9529 849.3214 287.0961)" style="" width="16" height="16" fill="#193651"></rect><path style="" d="M256,331.2c-17.6,0-31.2-13.6-31.2-31.2H200c0,25.6,17.6,48.8,43.2,54.4v24.8H268v-24.8 c24.8-5.6,43.2-28,43.2-54.4c0-31.2-24.8-56-56-56l0,0c-17.6,0-31.2-14.4-31.2-31.2c0-17.6,14.4-31.2,31.2-31.2 c17.6,0,31.2,14.4,31.2,31.2H312c0-26.4-18.4-48.8-43.2-54.4v-24.8H244v24.8c-24.8,5.6-43.2,28-43.2,54.4c0,30.4,24.8,56,56,56 c17.6,0,31.2,13.6,31.2,31.2C287.2,316.8,273.6,331.2,256,331.2z" fill="#193651"></path></g></svg>