<!-- icon666.com - MILLIONS vector ICONS FREE --><svg version="1.1" id="Capa_1" xmlns="http://www.w3.org/2000/svg" xmlns:xlink="http://www.w3.org/1999/xlink" x="0px" y="0px" viewBox="0 0 512 512" style="enable-background:new 0 0 512 512;" xml:space="preserve"><circle style="fill: rgb(245, 188, 79);" cx="256" cy="256" r="245.333" fill="#FED049"></circle><g><path style="" d="M256,0C114.615,0,0,114.615,0,256s114.615,256,256,256s256-114.615,256-256 C511.835,114.683,397.317,0.165,256,0z M256,490.667C126.397,490.667,21.333,385.603,21.333,256S126.397,21.333,256,21.333 S490.667,126.397,490.667,256C490.52,385.542,385.542,490.52,256,490.667z" fill="#474C54"></path><path style="" d="M213.333,277.333c-5.891,0-10.667,4.776-10.667,10.667v10.667c0,17.673,14.327,32,32,32h10.667 v10.667c0,5.891,4.776,10.667,10.667,10.667c5.891,0,10.667-4.776,10.667-10.667v-10.667h10.667c17.673,0,32-14.327,32-32v-21.333 c0-17.673-14.327-32-32-32h-42.667c-5.891,0-10.667-4.776-10.667-10.667v-21.333c0-5.891,4.776-10.667,10.667-10.667h42.667 c5.891,0,10.667,4.776,10.667,10.667V224c0,5.891,4.776,10.667,10.667,10.667c5.891,0,10.667-4.776,10.667-10.667v-10.667 c0-17.673-14.327-32-32-32h-10.667v-10.667c0-5.891-4.776-10.667-10.667-10.667c-5.891,0-10.667,4.776-10.667,10.667v10.667 h-10.667c-17.673,0-32,14.327-32,32v21.333c0,17.673,14.327,32,32,32h42.667c5.891,0,10.667,4.776,10.667,10.667v21.333 c0,5.891-4.776,10.667-10.667,10.667h-42.667c-5.891,0-10.667-4.776-10.667-10.667V288 C224,282.109,219.224,277.333,213.333,277.333z" fill="#474C54"></path><path style="" d="M256,85.333h-38.251l13.792-13.792c4.237-4.093,4.355-10.845,0.262-15.083 c-4.093-4.237-10.845-4.355-15.083-0.262c-0.089,0.086-0.176,0.173-0.262,0.262l-32,32c-4.171,4.16-4.179,10.914-0.019,15.085 c0.006,0.006,0.013,0.013,0.019,0.019l32,32c4.237,4.092,10.99,3.975,15.083-0.262c3.992-4.134,3.992-10.687,0-14.82 l-13.792-13.813H256c82.438,0.088,149.245,66.895,149.333,149.333c0,5.891,4.776,10.667,10.667,10.667 c5.891,0,10.667-4.776,10.667-10.667C426.555,161.79,350.21,85.445,256,85.333z" fill="#474C54"></path><path style="" d="M329.845,411.925c-0.535-1.3-1.321-2.482-2.315-3.477l-32-32c-4.237-4.093-10.99-3.975-15.083,0.262 c-3.993,4.134-3.993,10.687,0,14.821l13.803,13.803H256C173.562,405.245,106.755,338.438,106.667,256 c0-5.891-4.776-10.667-10.667-10.667S85.333,250.109,85.333,256C85.445,350.21,161.79,426.555,256,426.667h38.251l-13.792,13.792 c-4.237,4.093-4.355,10.845-0.262,15.083c4.093,4.237,10.845,4.354,15.083,0.262c0.089-0.086,0.176-0.173,0.262-0.262l32-32 c3.052-3.051,3.966-7.64,2.315-11.627L329.845,411.925z" fill="#474C54"></path></g></svg>